<?xml version="1.0" encoding="UTF-8"?>
<svg version="1.1" xmlns="http://www.w3.org/2000/svg" width="200" height="200">
<path d="M0 0 C66 0 132 0 200 0 C200 66 200 132 200 200 C134 200 68 200 0 200 C0 134 0 68 0 0 Z " fill="#8598C1" transform="translate(0,0)"/>
<path d="M0 0 C5.56746859 4.31150766 7.77068225 10.31500765 10.5625 16.625 C11.32771973 18.32076172 11.32771973 18.32076172 12.10839844 20.05078125 C13.18913705 22.45124893 14.26543437 24.85314379 15.33447266 27.25878906 C16.74199686 30.42548472 18.16350617 33.5856661 19.58970642 36.74398804 C20.98121658 39.82720243 22.36565643 42.91356056 23.75 46 C24.27537354 47.16869629 24.80074707 48.33739258 25.34204102 49.54150391 C25.82213623 50.62093262 26.30223145 51.70036133 26.796875 52.8125 C27.22323242 53.76769531 27.64958984 54.72289062 28.08886719 55.70703125 C29 58 29 58 29 60 C29.58215775 59.99333817 30.16431549 59.98667633 30.76411438 59.97981262 C36.81461066 59.9135231 42.86500405 59.86822607 48.91577148 59.83520508 C51.17492868 59.82010398 53.43405649 59.79962158 55.69311523 59.77368164 C58.93741093 59.73735692 62.18131956 59.72028692 65.42578125 59.70703125 C66.43836502 59.69154739 67.45094879 59.67606354 68.49421692 59.66011047 C69.90534004 59.65977058 69.90534004 59.65977058 71.3449707 59.65942383 C72.58740288 59.64943108 72.58740288 59.64943108 73.85493469 59.63923645 C76.51327605 60.08632431 77.42315782 60.84168609 79 63 C78.75546876 66.34192692 78.39456443 67.60543557 76 70 C74.20297241 70.2784729 74.20297241 70.2784729 72.00927734 70.31884766 C71.18857758 70.33871735 70.36787781 70.35858704 69.52230835 70.37905884 C68.63580597 70.39061005 67.74930359 70.40216125 66.8359375 70.4140625 C65.92872955 70.43342865 65.02152161 70.4527948 64.08682251 70.4727478 C61.18297796 70.53263216 58.27909396 70.57896416 55.375 70.625 C53.40883667 70.66317165 51.4426902 70.70222289 49.4765625 70.7421875 C44.6511783 70.83834091 39.82571582 70.922339 35 71 C35.45439453 71.97348389 35.90878906 72.94696777 36.37695312 73.94995117 C38.06380759 77.57038096 39.73809603 81.19650554 41.40869141 84.82446289 C42.13282475 86.39244648 42.86033513 87.95887513 43.59130859 89.52368164 C44.64276252 91.77608192 45.68185622 94.03383565 46.71875 96.29296875 C47.21091003 97.33701118 47.21091003 97.33701118 47.7130127 98.40214539 C49.37382736 102.05384911 50.52084957 104.96849505 50 109 C48.875 110.8125 48.875 110.8125 47 112 C44.0625 112.4375 44.0625 112.4375 41 112 C37.1746755 108.95436248 35.4709592 105.18959348 33.6171875 100.78515625 C33.31684601 100.09240097 33.01650452 99.39964569 32.70706177 98.68589783 C31.75407691 96.48183534 30.8144702 94.27235178 29.875 92.0625 C29.2365356 90.58100993 28.59722094 89.09988597 27.95703125 87.61914062 C25.57781087 82.10207355 23.23166328 76.57915821 21 71 C5.49 71 -10.02 71 -26 71 C-27.505625 74.3 -29.01125 77.6 -30.5625 81 C-31.05709717 82.08192627 -31.55169434 83.16385254 -32.0612793 84.27856445 C-34.1226565 88.803393 -36.16123012 93.33144957 -38.08203125 97.91796875 C-38.38874756 98.64564453 -38.69546387 99.37332031 -39.01147461 100.12304688 C-39.57292494 101.46532113 -40.12506407 102.8115414 -40.66625977 104.16210938 C-42.18113689 107.77029769 -43.46877236 110.16321941 -47 112 C-53.43636364 111.56363636 -53.43636364 111.56363636 -55 110 C-56.11201875 102.62118397 -52.48335907 96.85740625 -49.3125 90.375 C-48.40850328 88.48561358 -47.50979956 86.59376519 -46.61125183 84.70178223 C-45.99182995 83.39825314 -45.37089106 82.0954439 -44.74848938 80.79333496 C-41.66113162 74.32720259 -38.72644412 67.79595079 -35.8125 61.25 C-35.29671387 60.09741699 -34.78092773 58.94483398 -34.24951172 57.75732422 C-31.73750357 52.14344061 -29.23257904 46.52650719 -26.73925781 40.90429688 C-24.71493765 36.3397186 -22.68344392 31.77838309 -20.64828491 27.21862793 C-19.84641991 25.41816562 -19.04724822 23.61650119 -18.25088501 21.81359863 C-17.13102523 19.27892324 -16.00204195 16.74849337 -14.87109375 14.21875 C-14.37338974 13.08315643 -14.37338974 13.08315643 -13.8656311 11.92462158 C-7.99688354 -1.11584421 -7.99688354 -1.11584421 0 0 Z " fill="#F8FBFC" transform="translate(96,25)"/>
<path d="M0 0 C0.33 0 0.66 0 1 0 C1.23438667 6.32844017 0.37470522 11.81382652 -1 18 C-7.27 18 -13.54 18 -20 18 C-19.67 17.34 -19.34 16.68 -19 16 C-21.31 15.67 -23.62 15.34 -26 15 C-26 18.96 -26 22.92 -26 27 C-25.26394531 26.41089844 -24.52789062 25.82179688 -23.76953125 25.21484375 C-22.79371094 24.46332031 -21.81789062 23.71179688 -20.8125 22.9375 C-19.84957031 22.18339844 -18.88664062 21.42929687 -17.89453125 20.65234375 C-15 19 -15 19 -12.40234375 19.02734375 C-9.58933346 20.16626987 -7.93836758 21.52578813 -5.75 23.625 C-1.36618774 27.70673444 3.22547776 31.38806828 8 35 C7.125 39.875 7.125 39.875 6 41 C3.36785156 41.50044504 1.66059358 41.42017953 -0.62744141 39.96484375 C-2.41121882 38.53005516 -4.11729031 37.03835082 -5.8125 35.5 C-6.40998047 34.97535156 -7.00746094 34.45070312 -7.62304688 33.91015625 C-9.09173282 32.61771262 -10.54720498 31.31028072 -12 30 C-16.93421816 32.15354366 -20.85826438 35.75997423 -25.02734375 39.1015625 C-28.1041557 41.06651731 -29.44348486 41.72985876 -33 41 C-35.46466096 37.30300856 -35.25779399 35.40579069 -35.265625 30.99609375 C-35.26753845 30.31700455 -35.2694519 29.63791534 -35.27142334 28.93824768 C-35.27278247 27.50513335 -35.26910496 26.07200659 -35.26074219 24.63891602 C-35.25002167 22.44194015 -35.26065453 20.24577886 -35.2734375 18.04882812 C-35.27211618 16.65624819 -35.26955436 15.26366877 -35.265625 13.87109375 C-35.26336914 12.60193115 -35.26111328 11.33276855 -35.25878906 10.02514648 C-35 7 -35 7 -33 5 C-30.375 4.875 -30.375 4.875 -28 5 C-27.34 6.32 -26.68 7.64 -26 9 C-21.05 9 -16.1 9 -11 9 C-10.34 10.65 -9.68 12.3 -9 14 C-7.35 14 -5.7 14 -4 14 C-3.79503906 13.07316406 -3.59007812 12.14632812 -3.37890625 11.19140625 C-2.97478516 9.39509766 -2.97478516 9.39509766 -2.5625 7.5625 C-2.29566406 6.36753906 -2.02882812 5.17257813 -1.75390625 3.94140625 C-1 1 -1 1 0 0 Z " fill="#F6FBFC" transform="translate(162,40)"/>
<path d="M0 0 C2.96794043 3.53269482 4.73221946 7.50108673 6.57421875 11.6875 C6.90291458 12.42701904 7.23161041 13.16653809 7.57026672 13.9284668 C8.26113243 15.48728633 8.94932767 17.04729183 9.63500977 18.60839844 C10.6856222 20.99573303 11.74950331 23.37684511 12.81445312 25.7578125 C13.48518811 27.27568262 14.15513699 28.79390041 14.82421875 30.3125 C15.14291428 31.02301514 15.4616098 31.73353027 15.78996277 32.46557617 C17.30236413 35.93914417 18 38.14622902 18 42 C6.12 42 -5.76 42 -18 42 C-14.62226847 31.86680541 -14.62226847 31.86680541 -12.44140625 26.93359375 C-11.97283203 25.87076172 -11.50425781 24.80792969 -11.02148438 23.71289062 C-10.54001953 22.63201172 -10.05855469 21.55113281 -9.5625 20.4375 C-9.08490234 19.35275391 -8.60730469 18.26800781 -8.11523438 17.15039062 C-5.55003565 11.35494165 -2.89165872 5.63975991 0 0 Z " fill="#8897C1" transform="translate(93,42)"/>
<path d="M0 0 C1.175625 0.226875 2.35125 0.45375 3.5625 0.6875 C6.63152325 0.69571693 9.69041407 0.62490731 12.7578125 0.52734375 C15.59625607 0.68942758 17.16145301 1.22274645 19.5625 2.6875 C19.8925 2.0275 20.2225 1.3675 20.5625 0.6875 C24.4375 2.4375 24.4375 2.4375 25.5625 4.6875 C25.69665472 7.3598621 25.60568541 10.01000488 25.5625 12.6875 C24.2425 12.6875 22.9225 12.6875 21.5625 12.6875 C21.5625 10.7075 21.5625 8.7275 21.5625 6.6875 C20.9025 6.6875 20.2425 6.6875 19.5625 6.6875 C19.624375 7.80125 19.68625 8.915 19.75 10.0625 C19.6571875 11.856875 19.6571875 11.856875 19.5625 13.6875 C18.5725 14.3475 17.5825 15.0075 16.5625 15.6875 C13.375 14.8125 13.375 14.8125 10.5625 13.6875 C10.2325 14.0175 9.9025 14.3475 9.5625 14.6875 C7.54655418 14.92177778 5.524026 15.10086124 3.5 15.25 C2.39527344 15.33378906 1.29054687 15.41757813 0.15234375 15.50390625 C-0.70230469 15.56449219 -1.55695313 15.62507812 -2.4375 15.6875 C-2.4375 15.0275 -2.4375 14.3675 -2.4375 13.6875 C-5.0775 13.3575 -7.7175 13.0275 -10.4375 12.6875 C-10.4375 10.7075 -10.4375 8.7275 -10.4375 6.6875 C-11.4275 6.6875 -12.4175 6.6875 -13.4375 6.6875 C-13.4375 8.6675 -13.4375 10.6475 -13.4375 12.6875 C-14.4275 12.6875 -15.4175 12.6875 -16.4375 12.6875 C-16.4375 9.7175 -16.4375 6.7475 -16.4375 3.6875 C-15.179375 3.666875 -13.92125 3.64625 -12.625 3.625 C-11.91730469 3.61339844 -11.20960937 3.60179687 -10.48046875 3.58984375 C-8.4375 3.6875 -8.4375 3.6875 -5.4375 4.6875 C-5.4375 4.0275 -5.4375 3.3675 -5.4375 2.6875 C-3.74935643 0.15528465 -3.07523821 -0.39426131 0 0 Z " fill="#91ADBC" transform="translate(129.4375,144.3125)"/>
<path d="M0 0 C0.928125 0.495 1.85625 0.99 2.8125 1.5 C5.86527516 3.21289852 5.86527516 3.21289852 9 3 C9 4.65 9 6.3 9 8 C9.99 8.33 10.98 8.66 12 9 C12.495 10.485 12.495 10.485 13 12 C13.66 12.66 14.32 13.32 15 14 C14.34 15.32 13.68 16.64 13 18 C13.99 18 14.98 18 16 18 C16.77842938 21.40562852 17.09978121 24.50765756 17 28 C16.71125 27.38125 16.4225 26.7625 16.125 26.125 C15.06279958 23.86674235 15.06279958 23.86674235 13 22 C10.90019956 21.66983494 10.90019956 21.66983494 8.45849609 21.68115234 C7.04725967 21.65134781 7.04725967 21.65134781 5.60751343 21.62094116 C4.58976837 21.60938995 3.57202332 21.59783875 2.5234375 21.5859375 C1.48305328 21.56657135 0.44266907 21.5472052 -0.62924194 21.5272522 C-3.9610772 21.46734273 -7.29294679 21.42102548 -10.625 21.375 C-12.88022363 21.3368307 -15.13543252 21.2977796 -17.390625 21.2578125 C-22.92695275 21.16163201 -28.46336885 21.07661804 -34 21 C-34 20.67 -34 20.34 -34 20 C-30.7 19.67 -27.4 19.34 -24 19 C-24.33 18.01 -24.66 17.02 -25 16 C-20.38 12.37 -15.76 8.74 -11 5 C-6.21761536 7.39119232 -2.74610367 10.58132166 1.24609375 14.1015625 C4.21005561 16.14480429 5.49233217 16.44562023 9 16 C9.33 14.35 9.66 12.7 10 11 C6.37 8.03 2.74 5.06 -1 2 C-0.67 1.34 -0.34 0.68 0 0 Z " fill="#7EADC0" transform="translate(159,64)"/>
<path d="M0 0 C0.99 0.33 1.98 0.66 3 1 C3 1.99 3 2.98 3 4 C4.093125 3.979375 5.18625 3.95875 6.3125 3.9375 C10 4 10 4 13 5 C13.61875 4.690625 14.2375 4.38125 14.875 4.0625 C17.4680307 2.76598465 19.13224138 2.70587091 22 3 C22.99 3.66 23.98 4.32 25 5 C24.6875 6.875 24.6875 6.875 24 9 C23.01 9.66 22.02 10.32 21 11 C19.79549696 13.55183404 19.79549696 13.55183404 19 16 C16.87363187 15.71848084 14.74891472 15.42446737 12.625 15.125 C11.44164062 14.96257812 10.25828125 14.80015625 9.0390625 14.6328125 C6 14 6 14 4 12 C3.67 12.66 3.34 13.32 3 14 C1.68 14 0.36 14 -1 14 C-1.02685938 11.85423363 -1.04633088 9.70837355 -1.0625 7.5625 C-1.07410156 6.36753906 -1.08570313 5.17257813 -1.09765625 3.94140625 C-1 1 -1 1 0 0 Z " fill="#D9EBED" transform="translate(157,143)"/>
<path d="M0 0 C1.32 0 2.64 0 4 0 C4.84454356 3.37817425 5.10844919 5.67465243 4 9 C4.66 9 5.32 9 6 9 C6.144375 8.195625 6.28875 7.39125 6.4375 6.5625 C7 4 7 4 8 3 C10.67058851 2.85884839 13.32432238 2.95752893 16 3 C16 5.97 16 8.94 16 12 C6 12 6 12 3.5625 11.5 C0.94439217 10.90424482 0.94439217 10.90424482 -2 11 C-2.33 11.33 -2.66 11.66 -3 12 C-4.66617115 12.04063832 -6.33388095 12.042721 -8 12 C-8 13.65 -8 15.3 -8 17 C-8.99 17 -9.98 17 -11 17 C-11 12.38 -11 7.76 -11 3 C-7.66666667 3 -4.33333333 3 -1 3 C-0.67 2.01 -0.34 1.02 0 0 Z " fill="#E1E7F2" transform="translate(83,145)"/>
<path d="M0 0 C3.32274404 2.45594125 4.77618008 3.9256644 5.625 8 C4.77618008 12.0743356 3.32274404 13.54405875 0 16 C-3 16.625 -3 16.625 -6 16 C-9.66900829 13.36788535 -10.84009531 11.91145674 -11.625 7.4375 C-11 4 -11 4 -8.875 1.5625 C-5.46537255 -0.29055839 -3.81804737 -0.71588388 0 0 Z " fill="#F5FAFC" transform="translate(135,27)"/>
<path d="M0 0 C1.15083746 4.60334983 0.71679424 5.30979457 -1.30859375 9.39453125 C-1.80810547 10.43287109 -2.30761719 11.47121094 -2.82226562 12.54101562 C-3.89367129 14.71103314 -4.96657313 16.88031263 -6.04101562 19.04882812 C-9.74993941 26.69818618 -9.74993941 26.69818618 -10 35 C-6.69432511 35.85387105 -6.69432511 35.85387105 -3 36 C1.81585233 32.47460907 3.3328595 26.92886162 5.44335938 21.58007812 C6.22148379 19.68786059 7.10418918 17.83942593 8 16 C8.99 15.67 9.98 15.34 11 15 C11.125 21.625 11.125 21.625 10 25 C9.38125 25.5775 8.7625 26.155 8.125 26.75 C5.75827671 28.97555356 5.75827671 28.97555356 4.625 32.5 C2.71167209 36.62101397 0.8348734 37.71539457 -3 40 C-3.66 40.99 -4.32 41.98 -5 43 C-5 42.34 -5 41.68 -5 41 C-5.66 40.67 -6.32 40.34 -7 40 C-6.505 39.505 -6.505 39.505 -6 39 C-7.175625 38.7215625 -7.175625 38.7215625 -8.375 38.4375 C-11 37 -11 37 -12.4375 34 C-13.49955282 29.29520526 -12.554796 24.5089084 -11 20 C-10.34 19.67 -9.68 19.34 -9 19 C-8.59270772 16.67843403 -8.25561323 14.3431213 -8 12 C-7.01 12 -6.02 12 -5 12 C-3.35 8.04 -1.7 4.08 0 0 Z " fill="#9288BB" transform="translate(52,100)"/>
<path d="M0 0 C1.26166992 0.0009668 1.26166992 0.0009668 2.54882812 0.00195312 C6.32513735 0.02890537 9.65984667 0.1547021 13.3125 1.1875 C13.3125 3.1675 13.3125 5.1475 13.3125 7.1875 C12.508125 7.001875 11.70375 6.81625 10.875 6.625 C9.6065625 6.4084375 9.6065625 6.4084375 8.3125 6.1875 C7.9825 6.5175 7.6525 6.8475 7.3125 7.1875 C4.64191149 7.32865161 1.98817762 7.22997107 -0.6875 7.1875 C-0.6875 5.8675 -0.6875 4.5475 -0.6875 3.1875 C-1.3475 3.1875 -2.0075 3.1875 -2.6875 3.1875 C-3.0175 4.5075 -3.3475 5.8275 -3.6875 7.1875 C-7.6475 7.1875 -11.6075 7.1875 -15.6875 7.1875 C-16.0175 5.5375 -16.3475 3.8875 -16.6875 2.1875 C-11.00044573 0.24576622 -5.98419815 -0.08834481 0 0 Z " fill="#9CBFD0" transform="translate(147.6875,167.8125)"/>
<path d="M0 0 C0.763125 0.226875 1.52625 0.45375 2.3125 0.6875 C2.36645478 2.31213842 2.40527195 3.93728541 2.4375 5.5625 C2.46070313 6.46742188 2.48390625 7.37234375 2.5078125 8.3046875 C2.3125 10.6875 2.3125 10.6875 0.3125 12.6875 C-2.1875 12.8125 -2.1875 12.8125 -4.6875 12.6875 C-5.3475 12.6875 -6.0075 12.6875 -6.6875 12.6875 C-8.0075 12.6875 -9.3275 12.6875 -10.6875 12.6875 C-10.6875 10.7075 -10.6875 8.7275 -10.6875 6.6875 C-11.6775 6.6875 -12.6675 6.6875 -13.6875 6.6875 C-13.6875 8.6675 -13.6875 10.6475 -13.6875 12.6875 C-14.6775 12.6875 -15.6675 12.6875 -16.6875 12.6875 C-16.6875 9.7175 -16.6875 6.7475 -16.6875 3.6875 C-15.429375 3.666875 -14.17125 3.64625 -12.875 3.625 C-12.16730469 3.61339844 -11.45960937 3.60179687 -10.73046875 3.58984375 C-8.6875 3.6875 -8.6875 3.6875 -5.6875 4.6875 C-5.6875 4.0275 -5.6875 3.3675 -5.6875 2.6875 C-3.83710722 0.05799447 -3.27282212 -0.38056071 0 0 Z " fill="#94B0C7" transform="translate(129.6875,144.3125)"/>
<path d="M0 0 C2 3 2 3 2 5 C2.66 5.33 3.32 5.66 4 6 C3.34 6.66 2.68 7.32 2 8 C0.92924765 11.58054655 0.92924765 11.58054655 2 15 C0.68 16.65 -0.64 18.3 -2 20 C-2 19.34 -2 18.68 -2 18 C-3.65 18.33 -5.3 18.66 -7 19 C-7.33 20.32 -7.66 21.64 -8 23 C-8.721875 22.319375 -9.44375 21.63875 -10.1875 20.9375 C-12.75799817 18.80504796 -12.75799817 18.80504796 -15.375 18.875 C-18.65630631 20.28127413 -20.86604113 22.28839796 -23.44921875 24.72265625 C-25 26 -25 26 -27 26 C-27 22.04 -27 18.08 -27 14 C-22.38 14 -17.76 14 -13 14 C-13 14.33 -13 14.66 -13 15 C-15.31 15.33 -17.62 15.66 -20 16 C-14.06 16.33 -8.12 16.66 -2 17 C-1.34 11.39 -0.68 5.78 0 0 Z " fill="#89B0BF" transform="translate(163,41)"/>
<path d="M0 0 C0 0.99 0 1.98 0 3 C-0.99 3 -1.98 3 -3 3 C-3 3.99 -3 4.98 -3 6 C-2.34 6 -1.68 6 -1 6 C-1 6.66 -1 7.32 -1 8 C-1.99 8 -2.98 8 -4 8 C-4 8.99 -4 9.98 -4 11 C-3.34 11 -2.68 11 -2 11 C-2 11.66 -2 12.32 -2 13 C-1.01 13 -0.02 13 1 13 C1 12.34 1 11.68 1 11 C1.99 11 2.98 11 4 11 C4 11.66 4 12.32 4 13 C4.99 13 5.98 13 7 13 C7 12.34 7 11.68 7 11 C7.66 11 8.32 11 9 11 C8.67 9.35 8.34 7.7 8 6 C8.99 6 9.98 6 11 6 C11 5.01 11 4.02 11 3 C10.34 3 9.68 3 9 3 C9.33 2.01 9.66 1.02 10 0 C11.32 0.33 12.64 0.66 14 1 C13.49202991 5.3177458 12.80317221 9.03302114 11 13 C12.32 13.33 13.64 13.66 15 14 C14.34 14.66 13.68 15.32 13 16 C13 15.34 13 14.68 13 14 C12.05125 14.165 11.1025 14.33 10.125 14.5 C5.4236123 15.18541792 0.73996714 15.08583441 -4 15 C-4 14.34 -4 13.68 -4 13 C-6.475 12.01 -6.475 12.01 -9 11 C-9 8 -9 5 -9 2 C-2.25 0 -2.25 0 0 0 Z " fill="#9782BD" transform="translate(26,144)"/>
<path d="M0 0 C1.45635167 0.13239561 2.91002521 0.29757516 4.359375 0.4921875 C5.10445312 0.56695313 5.84953125 0.64171875 6.6171875 0.71875 C8.45101205 0.90683457 10.28082733 1.1333035 12.109375 1.3671875 C12.13638908 3.47128389 12.15577723 5.57547928 12.171875 7.6796875 C12.18347656 8.85144531 12.19507813 10.02320313 12.20703125 11.23046875 C12.109375 14.3671875 12.109375 14.3671875 11.109375 17.3671875 C8.046875 18.5546875 8.046875 18.5546875 5.109375 19.3671875 C5.109375 20.3571875 5.109375 21.3471875 5.109375 22.3671875 C2.469375 22.3671875 -0.170625 22.3671875 -2.890625 22.3671875 C-3.220625 21.7071875 -3.550625 21.0471875 -3.890625 20.3671875 C-3.230625 19.7071875 -2.570625 19.0471875 -1.890625 18.3671875 C-0.4675 18.4290625 -0.4675 18.4290625 0.984375 18.4921875 C4.15841984 18.64235945 4.15841984 18.64235945 6.484375 16.7421875 C8.59644006 13.65532318 8.72132645 12.0388962 8.109375 8.3671875 C6.609375 5.8671875 6.609375 5.8671875 4.109375 4.3671875 C0.76675048 3.87972142 -1.18504992 4.05153549 -4.265625 5.4296875 C-6.21526657 7.38978453 -6.21526657 7.38978453 -6.265625 10.8046875 C-5.93397377 13.95537418 -5.5690622 15.74462938 -3.890625 18.3671875 C-4.880625 19.3571875 -5.870625 20.3471875 -6.890625 21.3671875 C-9.11099029 16.27340831 -9.43137211 11.68010856 -7.890625 6.3671875 C-5.77123293 1.83792831 -5.10804339 0.48208442 0 0 Z " fill="#85A7BD" transform="translate(130.890625,23.6328125)"/>
<path d="M0 0 C0.928125 0.495 1.85625 0.99 2.8125 1.5 C5.86527516 3.21289852 5.86527516 3.21289852 9 3 C9 4.65 9 6.3 9 8 C9.99 8.33 10.98 8.66 12 9 C12.495 10.485 12.495 10.485 13 12 C13.66 12.66 14.32 13.32 15 14 C14.34 15.32 13.68 16.64 13 18 C13.99 18 14.98 18 16 18 C16.77842938 21.40562852 17.09978121 24.50765756 17 28 C16.71125 27.38125 16.4225 26.7625 16.125 26.125 C15.06279958 23.86674235 15.06279958 23.86674235 13 22 C10.90019956 21.66983494 10.90019956 21.66983494 8.45849609 21.68115234 C7.04725967 21.65134781 7.04725967 21.65134781 5.60751343 21.62094116 C4.58976837 21.60938995 3.57202332 21.59783875 2.5234375 21.5859375 C1.48305328 21.56657135 0.44266907 21.5472052 -0.62924194 21.5272522 C-3.9610772 21.46734273 -7.29294679 21.42102548 -10.625 21.375 C-12.88022363 21.3368307 -15.13543252 21.2977796 -17.390625 21.2578125 C-22.92695275 21.16163201 -28.46336885 21.07661804 -34 21 C-34 20.67 -34 20.34 -34 20 C-32.80922852 19.9906543 -31.61845703 19.98130859 -30.39160156 19.97167969 C-25.97064908 19.93178613 -21.55039297 19.86602927 -17.12988281 19.79248047 C-15.21721344 19.76426714 -13.3044274 19.74305439 -11.39160156 19.72900391 C-8.64066827 19.70757919 -5.89113825 19.6609326 -3.140625 19.609375 C-2.28631897 19.60814636 -1.43201294 19.60691772 -0.55181885 19.60565186 C4.35096702 19.4885315 4.35096702 19.4885315 8.56713867 17.11694336 C10.22040949 15.08340959 10.22040949 15.08340959 10.06640625 12.51953125 C8.65937853 9.19523499 6.8148541 7.83641003 3.9375 5.6875 C3.01839844 4.99011719 2.09929687 4.29273437 1.15234375 3.57421875 C0.44207031 3.05472656 -0.26820313 2.53523438 -1 2 C-0.67 1.34 -0.34 0.68 0 0 Z " fill="#89B6C2" transform="translate(159,64)"/>
<path d="M0 0 C0.99 0 1.98 0 3 0 C3 0.66 3 1.32 3 2 C3.99 2 4.98 2 6 2 C6 1.34 6 0.68 6 0 C6.99 0 7.98 0 9 0 C9 0.66 9 1.32 9 2 C9.66 2 10.32 2 11 2 C11 2.99 11 3.98 11 5 C10.01 5 9.02 5 8 5 C8.33 6.65 8.66 8.3 9 10 C8.34 10 7.68 10 7 10 C7 10.66 7 11.32 7 12 C6.01 12 5.02 12 4 12 C4 11.34 4 10.68 4 10 C3.01 10 2.02 10 1 10 C1 10.66 1 11.32 1 12 C0.01 12 -0.98 12 -2 12 C-2 11.34 -2 10.68 -2 10 C-2.66 10 -3.32 10 -4 10 C-4 9.01 -4 8.02 -4 7 C-3.01 7 -2.02 7 -1 7 C-1 6.34 -1 5.68 -1 5 C-1.66 5 -2.32 5 -3 5 C-3 4.01 -3 3.02 -3 2 C-2.01 2 -1.02 2 0 2 C0 1.34 0 0.68 0 0 Z " fill="#F5F0F9" transform="translate(26,145)"/>
<path d="M0 0 C0.99 0.66 1.98 1.32 3 2 C2.6875 3.875 2.6875 3.875 2 6 C1.01 6.66 0.02 7.32 -1 8 C-2.20450304 10.55183404 -2.20450304 10.55183404 -3 13 C-8.75 12.25 -8.75 12.25 -11 10 C-10.34 10 -9.68 10 -9 10 C-9 7.03 -9 4.06 -9 1 C-5.64680506 0.16170126 -3.37979896 -0.25998454 0 0 Z " fill="#83B9C1" transform="translate(179,146)"/>
<path d="M0 0 C0.66 0 1.32 0 2 0 C2.06058594 0.69867188 2.12117188 1.39734375 2.18359375 2.1171875 C2.26738281 3.02726562 2.35117188 3.93734375 2.4375 4.875 C2.51871094 5.77992187 2.59992188 6.68484375 2.68359375 7.6171875 C2.86989285 10.01110861 2.86989285 10.01110861 4 12 C6.32156597 12.40729228 8.6568787 12.74438677 11 13 C11 13.99 11 14.98 11 16 C7.37 16 3.74 16 0 16 C-1.00484204 14.04414675 -2.00373805 12.08523763 -3 10.125 C-3.556875 9.03445312 -4.11375 7.94390625 -4.6875 6.8203125 C-6 4 -6 4 -6 2 C-5.34 2 -4.68 2 -4 2 C-4 2.66 -4 3.32 -4 4 C-3.34 4 -2.68 4 -2 4 C-1.34 2.68 -0.68 1.36 0 0 Z " fill="#86A4BD" transform="translate(125,68)"/>
<path d="M0 0 C1.32 0 2.64 0 4 0 C4 3.96 4 7.92 4 12 C-2.93359375 12.09765625 -2.93359375 12.09765625 -5 12 C-6 11 -6 11 -6.125 7.5 C-6 4 -6 4 -5 3 C-3.33382885 2.95936168 -1.66611905 2.957279 0 3 C0 2.01 0 1.02 0 0 Z " fill="#EEEDF5" transform="translate(56,145)"/>
<path d="M0 0 C0.66 0.33 1.32 0.66 2 1 C2 1.99 2 2.98 2 4 C1.34 4 0.68 4 0 4 C-0.33 8.29 -0.66 12.58 -1 17 C0.32 17 1.64 17 3 17 C3 14.36 3 11.72 3 9 C3.33 9 3.66 9 4 9 C4.66 11.31 5.32 13.62 6 16 C7.134375 16.12375 8.26875 16.2475 9.4375 16.375 C11.2009375 16.684375 11.2009375 16.684375 13 17 C13.33 17.66 13.66 18.32 14 19 C10.51453502 19.87136625 8.42947121 19.8573678 5 19 C4.236875 19.185625 3.47375 19.37125 2.6875 19.5625 C-0.94985426 20.15462744 -3.55692269 19.19183445 -7 18 C-8 17 -8 17 -8.0625 13.9375 C-8.041875 12.968125 -8.02125 11.99875 -8 11 C-7.34 11 -6.68 11 -6 11 C-6 12.98 -6 14.96 -6 17 C-4.68 17 -3.36 17 -2 17 C-2.33 13.7 -2.66 10.4 -3 7 C-3.66 7 -4.32 7 -5 7 C-5 6.01 -5 5.02 -5 4 C-4.360625 3.71125 -3.72125 3.4225 -3.0625 3.125 C-0.84793921 2.17176549 -0.84793921 2.17176549 0 0 Z " fill="#84AFBC" transform="translate(157,140)"/>
<path d="M0 0 C0.33 0 0.66 0 1 0 C1.23438667 6.32844017 0.37470522 11.81382652 -1 18 C-7.27 18 -13.54 18 -20 18 C-19.67 17.34 -19.34 16.68 -19 16 C-16.69 16 -14.38 16 -12 16 C-12 15.34 -12 14.68 -12 14 C-9.36 14 -6.72 14 -4 14 C-3.79503906 13.07316406 -3.59007812 12.14632812 -3.37890625 11.19140625 C-3.10949219 9.99386719 -2.84007812 8.79632813 -2.5625 7.5625 C-2.29566406 6.36753906 -2.02882812 5.17257813 -1.75390625 3.94140625 C-1 1 -1 1 0 0 Z " fill="#B9D8E1" transform="translate(162,40)"/>
<path d="M0 0 C1.32 0 2.64 0 4 0 C4.6708712 1.6232687 5.33657029 3.24867578 6 4.875 C6.556875 6.23238281 6.556875 6.23238281 7.125 7.6171875 C8 10 8 10 8 12 C6.68 12 5.36 12 4 12 C4 11.34 4 10.68 4 10 C2.68 10 1.36 10 0 10 C0 10.66 0 11.32 0 12 C-1.32 12 -2.64 12 -4 12 C-3.52309796 10.37433394 -3.04340334 8.74948689 -2.5625 7.125 C-2.29566406 6.22007812 -2.02882812 5.31515625 -1.75390625 4.3828125 C-1 2 -1 2 0 0 Z " fill="#EEECF6" transform="translate(41,145)"/>
<path d="M0 0 C0 1.98 0 3.96 0 6 C-0.804375 5.814375 -1.60875 5.62875 -2.4375 5.4375 C-3.283125 5.293125 -4.12875 5.14875 -5 5 C-5.33 5.33 -5.66 5.66 -6 6 C-8.33944736 5.71269945 -10.6739143 5.38063221 -13 5 C-13 3.68 -13 2.36 -13 1 C-13.66 0.67 -14.32 0.34 -15 0 C-10.1129572 -1.5638537 -4.8870428 -1.5638537 0 0 Z " fill="#A0C8D5" transform="translate(161,169)"/>
<path d="M0 0 C0.99 0 1.98 0 3 0 C3.33 2.64 3.66 5.28 4 8 C4.99 8.33 5.98 8.66 7 9 C7 6.03 7 3.06 7 0 C7.99 0 8.98 0 10 0 C10.05395478 1.62463842 10.09277195 3.24978541 10.125 4.875 C10.14820312 5.77992188 10.17140625 6.68484375 10.1953125 7.6171875 C10 10 10 10 8 12 C5 12.25 5 12.25 2 12 C0 10 0 10 -0.1953125 7.6171875 C-0.17210938 6.71226562 -0.14890625 5.80734375 -0.125 4.875 C-0.10695313 3.96492187 -0.08890625 3.05484375 -0.0703125 2.1171875 C-0.04710938 1.41851562 -0.02390625 0.71984375 0 0 Z " fill="#F0F8FD" transform="translate(101,145)"/>
<path d="M0 0 C2.33294775 -0.04241723 4.66702567 -0.04092937 7 0 C8 1 8 1 8.0625 4.5625 C8.041875 5.696875 8.02125 6.83125 8 8 C5.29120665 9.35439668 2.99066732 9.06501451 0 9 C-1.125 2.25 -1.125 2.25 0 0 Z " fill="#E9E9F3" transform="translate(62,148)"/>
<path d="M0 0 C6.93359375 -0.09765625 6.93359375 -0.09765625 9 0 C10 1 10 1 10.09765625 2.84765625 C10.04882812 5.92382812 10.04882812 5.92382812 10 9 C8.68 9 7.36 9 6 9 C6 7.02 6 5.04 6 3 C5.01 3 4.02 3 3 3 C3 4.98 3 6.96 3 9 C2.01 9 1.02 9 0 9 C0 6.03 0 3.06 0 0 Z " fill="#F1FAFB" transform="translate(145,148)"/>
<path d="M0 0 C1.32 0.33 2.64 0.66 4 1 C3.67 2.65 3.34 4.3 3 6 C4.32 6 5.64 6 7 6 C7.33 5.01 7.66 4.02 8 3 C8.33 3 8.66 3 9 3 C9.042721 4.66611905 9.04063832 6.33382885 9 8 C8 9 8 9 5.4375 9.0625 C4.633125 9.041875 3.82875 9.02125 3 9 C3 10.65 3 12.3 3 14 C2.01 14 1.02 14 0 14 C0 9.38 0 4.76 0 0 Z " fill="#F5F8FD" transform="translate(72,148)"/>
<path d="M0 0 C0.99 0.33 1.98 0.66 3 1 C3 1.99 3 2.98 3 4 C5.31 4 7.62 4 10 4 C7.35261084 5.4606285 6.10551666 6 3 6 C3 8.64 3 11.28 3 14 C1.68 14 0.36 14 -1 14 C-1.02685938 11.85423363 -1.04633088 9.70837355 -1.0625 7.5625 C-1.07410156 6.36753906 -1.08570313 5.17257813 -1.09765625 3.94140625 C-1 1 -1 1 0 0 Z " fill="#E0F0F1" transform="translate(157,143)"/>
<path d="M0 0 C0.99 0 1.98 0 3 0 C3 1.98 3 3.96 3 6 C3.99 6 4.98 6 6 6 C6 4.02 6 2.04 6 0 C6.99 0 7.98 0 9 0 C9 2.97 9 5.94 9 9 C2.84765625 9.09765625 2.84765625 9.09765625 1 9 C0 8 0 8 -0.09765625 6.15234375 C-0.06510417 4.1015625 -0.03255208 2.05078125 0 0 Z " fill="#EFFCFD" transform="translate(134,148)"/>
<path d="M0 0 C6.15234375 -0.09765625 6.15234375 -0.09765625 8 0 C9 1 9 1 9.09765625 2.84765625 C9.04882812 5.92382812 9.04882812 5.92382812 9 9 C8.01 9 7.02 9 6 9 C6 7.02 6 5.04 6 3 C5.01 3 4.02 3 3 3 C3 4.98 3 6.96 3 9 C2.01 9 1.02 9 0 9 C0 6.03 0 3.06 0 0 Z " fill="#EEF7FB" transform="translate(113,148)"/>
<path d="M0 0 C1.98 0.66 3.96 1.32 6 2 C6.33 1.34 6.66 0.68 7 0 C8.32 0.99 9.64 1.98 11 3 C8.03 3 5.06 3 2 3 C2 5.97 2 8.94 2 12 C2.99 12 3.98 12 5 12 C5 10.02 5 8.04 5 6 C5.33 6 5.66 6 6 6 C6.1875 9.375 6.1875 9.375 6 13 C5.01 13.66 4.02 14.32 3 15 C-0.1875 14.125 -0.1875 14.125 -3 13 C-2.01 12.67 -1.02 12.34 0 12 C0 9.03 0 6.06 0 3 C-0.99 2.67 -1.98 2.34 -3 2 C-2.01 2 -1.02 2 0 2 C0 1.34 0 0.68 0 0 Z " fill="#91B2C1" transform="translate(143,145)"/>
<path d="M0 0 C0.99 0.33 1.98 0.66 3 1 C4.1875 3.5625 4.1875 3.5625 5 6 C5.66 6 6.32 6 7 6 C9 9.75 9 9.75 9 12 C9.33 12.99 9.66 13.98 10 15 C10.03920815 16.99961564 10.04443347 19.00049364 10 21 C6.86976336 17.33039951 5.18200667 13.20330377 3.3125 8.8125 C2.99216797 8.07580078 2.67183594 7.33910156 2.34179688 6.58007812 C0 1.152502 0 1.152502 0 0 Z M10 11 C10.99 11.495 10.99 11.495 12 12 C11.01 12.495 11.01 12.495 10 13 C10 12.34 10 11.68 10 11 Z " fill="#86AABF" transform="translate(132,99)"/>
<path d="M0 0 C0.99 0 1.98 0 3 0 C3.05395478 1.62463842 3.09277195 3.24978541 3.125 4.875 C3.14820313 5.77992188 3.17140625 6.68484375 3.1953125 7.6171875 C3 10 3 10 1 12 C-1.625 12.125 -1.625 12.125 -4 12 C-4.33 10.68 -4.66 9.36 -5 8 C-2.525 8.495 -2.525 8.495 0 9 C0 6.03 0 3.06 0 0 Z " fill="#F0F9FC" transform="translate(129,145)"/>
<path d="M0 0 C0.33 0 0.66 0 1 0 C1.33 3.3 1.66 6.6 2 10 C4.31 10.66 6.62 11.32 9 12 C8.67 12.99 8.34 13.98 8 15 C8 14.34 8 13.68 8 13 C6.576875 13.2784375 6.576875 13.2784375 5.125 13.5625 C2 14 2 14 0 13 C-0.33 13.66 -0.66 14.32 -1 15 C-1 14.34 -1 13.68 -1 13 C-1.99 12.67 -2.98 12.34 -4 12 C-3.01 12 -2.02 12 -1 12 C-1 9.03 -1 6.06 -1 3 C-1.99 2.67 -2.98 2.34 -4 2 C-2.68 2 -1.36 2 0 2 C0 1.34 0 0.68 0 0 Z " fill="#97A5BE" transform="translate(100,145)"/>
<path d="M0 0 C11.88 0 23.76 0 36 0 C36 0.33 36 0.66 36 1 C35.08186523 1.02505615 34.16373047 1.0501123 33.21777344 1.07592773 C29.80342975 1.1712027 26.38924797 1.27042778 22.97509766 1.37231445 C21.4989061 1.41556035 20.02266785 1.45724256 18.54638672 1.49731445 C16.42140652 1.55526846 14.29665907 1.61888946 12.171875 1.68359375 C10.8940918 1.72025146 9.61630859 1.75690918 8.29980469 1.79467773 C5.68090127 1.95763259 3.48983284 2.22946803 1 3 C0.67 2.01 0.34 1.02 0 0 Z " fill="#87A8B8" transform="translate(130,95)"/>
<path d="M0 0 C0.66 0.66 1.32 1.32 2 2 C0.08277831 9.81636537 0.08277831 9.81636537 -3 12 C-3.66 12 -4.32 12 -5 12 C-5.33 12.66 -5.66 13.32 -6 14 C-6 13.34 -6 12.68 -6 12 C-6.99 12.33 -7.98 12.66 -9 13 C-9.33 12.34 -9.66 11.68 -10 11 C-9.030625 10.690625 -8.06125 10.38125 -7.0625 10.0625 C-4.15934208 9.30476658 -4.15934208 9.30476658 -3 8 C-2.95907063 5.66702567 -2.95758277 3.33294775 -3 1 C-2.01 0.67 -1.02 0.34 0 0 Z " fill="#85ABBE" transform="translate(148,126)"/>
<path d="M0 0 C0.5775 0.165 1.155 0.33 1.75 0.5 C4.26664369 1.14462031 4.26664369 1.14462031 8 1 C8 2.65 8 4.3 8 6 C5.36 6 2.72 6 0 6 C0 4.02 0 2.04 0 0 Z " fill="#BCB2DF" transform="translate(40,169)"/>
<path d="M0 0 C1.051875 0.185625 2.10375 0.37125 3.1875 0.5625 C6.63825024 0.95848773 8.69036459 0.71559684 12 0 C14.3125 0.4375 14.3125 0.4375 16 1 C14 3 14 3 11 4 C10.67 4.66 10.34 5.32 10 6 C9.01 5.34 8.02 4.68 7 4 C4.67612053 3.60612212 2.34206251 3.26513915 0 3 C0 2.01 0 1.02 0 0 Z " fill="#7AB4BF" transform="translate(160,144)"/>
<path d="M0 0 C1.98 0 3.96 0 6 0 C6 0.99 6 1.98 6 3 C5.01 3.495 5.01 3.495 4 4 C3.34444881 6.52733235 3.34444881 6.52733235 3 9 C2.01 9 1.02 9 0 9 C0 6.03 0 3.06 0 0 Z " fill="#F0FEFE" transform="translate(172,148)"/>
<path d="M0 0 C2.64 0 5.28 0 8 0 C7.67 1.65 7.34 3.3 7 5 C5.02 5 3.04 5 1 5 C0.67 3.35 0.34 1.7 0 0 Z " fill="#BAC6E0" transform="translate(90,170)"/>
<path d="M0 0 C0.66 0.33 1.32 0.66 2 1 C0.40109514 6.19644079 -1.74138003 11.06612142 -4 16 C-4.33 16 -4.66 16 -5 16 C-4 8.57142857 -4 8.57142857 -3 5 C-2.34 5 -1.68 5 -1 5 C-0.67 3.35 -0.34 1.7 0 0 Z " fill="#928EBB" transform="translate(61,79)"/>
<path d="M0 0 C0.66 0.33 1.32 0.66 2 1 C0.24009216 6.91969002 -2.39694605 12.41634992 -5 18 C-6.31079811 14.39321794 -5.68377822 12.46840463 -4.1875 9 C-3.83042969 8.154375 -3.47335938 7.30875 -3.10546875 6.4375 C-2.11927845 4.26300267 -1.08731293 2.12542617 0 0 Z " fill="#9294BB" transform="translate(76,46)"/>
<path d="M0 0 C1.125 3.75 1.125 3.75 0 6 C-0.99 5.67 -1.98 5.34 -3 5 C-2.34 5 -1.68 5 -1 5 C-1 4.01 -1 3.02 -1 2 C-1.99 2.33 -2.98 2.66 -4 3 C-4.99 2.67 -5.98 2.34 -7 2 C-7 4.31 -7 6.62 -7 9 C-7.66 8.67 -8.32 8.34 -9 8 C-9 5.69 -9 3.38 -9 1 C-5.92677456 0.08941469 -3.19902639 -0.08886184 0 0 Z " fill="#8FBEC5" transform="translate(179,146)"/>
<path d="M0 0 C1.32 0 2.64 0 4 0 C4 1.65 4 3.3 4 5 C1.03 5 -1.94 5 -5 5 C-5.33 3.68 -5.66 2.36 -6 1 C-4.515 1.99 -4.515 1.99 -3 3 C-2.34 3 -1.68 3 -1 3 C-0.67 2.01 -0.34 1.02 0 0 Z " fill="#BBCDE7" transform="translate(104,170)"/>
<path d="M0 0 C0 2.97 0 5.94 0 9 C-1.65 8.67 -3.3 8.34 -5 8 C-4.34 6.02 -3.68 4.04 -3 2 C-3.66 1.67 -4.32 1.34 -5 1 C-2 0 -2 0 0 0 Z " fill="#F8FCFE" transform="translate(99,148)"/>
<path d="M0 0 C0.99 0 1.98 0 3 0 C3 1.98 3 3.96 3 6 C3.99 6.33 4.98 6.66 6 7 C3.1875 7.625 3.1875 7.625 0 8 C-0.99 7.34 -1.98 6.68 -3 6 C-2.01 6 -1.02 6 0 6 C0 4.02 0 2.04 0 0 Z " fill="#8FA4BD" transform="translate(116,151)"/>
<path d="M0 0 C1.98 0 3.96 0 6 0 C6.33 1.32 6.66 2.64 7 4 C2.25 5 2.25 5 0 5 C0 3.35 0 1.7 0 0 Z " fill="#BAD7E7" transform="translate(136,170)"/>
<path d="M0 0 C2.97851562 0.43945312 2.97851562 0.43945312 5.95703125 0.87890625 C8.2025342 1.13904799 8.2025342 1.13904799 11 0 C13.1875 0.4375 13.1875 0.4375 15 1 C15 1.66 15 2.32 15 3 C9.06 3.495 9.06 3.495 3 4 C3 3.34 3 2.68 3 2 C2.01 2 1.02 2 0 2 C0 1.34 0 0.68 0 0 Z " fill="#89A8C0" transform="translate(124,156)"/>
<path d="M0 0 C-0.66 0.66 -1.32 1.32 -2 2 C-2.16687448 4.58354218 -2.16687448 4.58354218 -2 7 C-3.32 6.67 -4.64 6.34 -6 6 C-6 4.02 -6 2.04 -6 0 C-3.50907189 -1.24546405 -2.58919267 -0.7767578 0 0 Z " fill="#ECFBFC" transform="translate(167,149)"/>
<path d="M0 0 C1.125 3.75 1.125 3.75 0 6 C-0.99 6 -1.98 6 -3 6 C-3.33 6.99 -3.66 7.98 -4 9 C-4.66 9 -5.32 9 -6 9 C-6.042721 7.33388095 -6.04063832 5.66617115 -6 4 C-5 3 -5 3 -2.4375 2.9375 C-1.2309375 2.9684375 -1.2309375 2.9684375 0 3 C0 2.01 0 1.02 0 0 Z " fill="#F5F2FC" transform="translate(56,145)"/>
<path d="M0 0 C1.98 0.66 3.96 1.32 6 2 C6.33 1.34 6.66 0.68 7 0 C8.32 0.99 9.64 1.98 11 3 C7.7 3 4.4 3 1 3 C1 5.97 1 8.94 1 12 C0.67 12 0.34 12 0 12 C0 9.03 0 6.06 0 3 C-0.99 2.67 -1.98 2.34 -3 2 C-2.01 2 -1.02 2 0 2 C0 1.34 0 0.68 0 0 Z " fill="#9ABBCC" transform="translate(143,145)"/>
<path d="M0 0 C0.33 0.66 0.66 1.32 1 2 C0.67 2.66 0.34 3.32 0 4 C-0.66 4 -1.32 4 -2 4 C-2 4.99 -2 5.98 -2 7 C-4.64 7 -7.28 7 -10 7 C-10.33 6.34 -10.66 5.68 -11 5 C-10.34 4.34 -9.68 3.68 -9 3 C-7.5459375 3.0309375 -7.5459375 3.0309375 -6.0625 3.0625 C-2.9985395 3.31075561 -2.9985395 3.31075561 -1.125 1.5 C-0.75375 1.005 -0.3825 0.51 0 0 Z " fill="#94B0C3" transform="translate(138,39)"/>
<path d="M0 0 C0.99 0.33 1.98 0.66 3 1 C3 1.99 3 2.98 3 4 C5.31 4 7.62 4 10 4 C7.08291076 5.98362069 5.87619096 5.9876191 2.25 5.625 C1.1775 5.41875 0.105 5.2125 -1 5 C-0.67 3.35 -0.34 1.7 0 0 Z " fill="#B7D6DF" transform="translate(157,143)"/>
<path d="M0 0 C1.65 0 3.3 0 5 0 C5 4 5 4 4 6 C2.68 6 1.36 6 0 6 C0 4.02 0 2.04 0 0 Z " fill="#D5D5E5" transform="translate(75,148)"/>
<path d="M0 0 C1.32 0.33 2.64 0.66 4 1 C4 2.32 4 3.64 4 5 C4.66 5 5.32 5 6 5 C6.33 3.68 6.66 2.36 7 1 C7 2.65 7 4.3 7 6 C5.00045254 6.04254356 2.99958364 6.04080783 1 6 C0 5 0 5 -0.0625 2.4375 C-0.041875 1.633125 -0.02125 0.82875 0 0 Z " fill="#C6C6E9" transform="translate(66,169)"/>
<path d="M0 0 C0.66 0 1.32 0 2 0 C2 2.31 2 4.62 2 7 C0.35 6.67 -1.3 6.34 -3 6 C-2.67 4.68 -2.34 3.36 -2 2 C-1.34 2 -0.68 2 0 2 C0 1.34 0 0.68 0 0 Z " fill="#BDC1E3" transform="translate(77,168)"/>
<path d="M0 0 C0 0.33 0 0.66 0 1 C-0.886875 0.979375 -1.77375 0.95875 -2.6875 0.9375 C-5.62936946 0.99300697 -8.14262735 1.3650283 -11 2 C-11.66 2 -12.32 2 -13 2 C-12.67 1.01 -12.34 0.02 -12 -1 C-7.31034294 -2.11658501 -4.46236469 -1.80619523 0 0 Z " fill="#8E8ABB" transform="translate(67,158)"/>
<path d="M0 0 C0.99 0 1.98 0 3 0 C3.33 1.98 3.66 3.96 4 6 C2.02 6 0.04 6 -2 6 C-2 2 -2 2 0 0 Z " fill="#D4D1E2" transform="translate(53,151)"/>
<path d="M0 0 C0.99 0 1.98 0 3 0 C3 2.97 3 5.94 3 9 C2.01 9 1.02 9 0 9 C0 6.03 0 3.06 0 0 Z " fill="#F7FDFE" transform="translate(113,148)"/>
<path d="M0 0 C1.65 0.33 3.3 0.66 5 1 C4.67 3.31 4.34 5.62 4 8 C2.35 7.67 0.7 7.34 -1 7 C-0.01 6.67 0.98 6.34 2 6 C2 5.01 2 4.02 2 3 C1.34 3 0.68 3 0 3 C0 2.01 0 1.02 0 0 Z " fill="#9084BA" transform="translate(35,144)"/>
<path d="M0 0 C0 0.99 0 1.98 0 3 C-0.99 3 -1.98 3 -3 3 C-3 3.99 -3 4.98 -3 6 C-2.34 6 -1.68 6 -1 6 C-1 6.66 -1 7.32 -1 8 C-1.99 8 -2.98 8 -4 8 C-4.33 8.99 -4.66 9.98 -5 11 C-5.08096803 9.54257537 -5.13917774 8.08387193 -5.1875 6.625 C-5.22230469 5.81289062 -5.25710937 5.00078125 -5.29296875 4.1640625 C-5.19628906 3.44992188 -5.09960938 2.73578125 -5 2 C-2 0 -2 0 0 0 Z " fill="#9988BD" transform="translate(26,144)"/>
<path d="M0 0 C0.66 0 1.32 0 2 0 C2.69699552 1.45381897 3.38233866 2.91322953 4.0625 4.375 C4.63677734 5.59316406 4.63677734 5.59316406 5.22265625 6.8359375 C5.47917969 7.55007812 5.73570313 8.26421875 6 9 C5.67 9.66 5.34 10.32 5 11 C4.34 9.68 3.68 8.36 3 7 C2.34 7 1.68 7 1 7 C0.67 4.69 0.34 2.38 0 0 Z " fill="#91A1C0" transform="translate(98,55)"/>
<path d="M0 0 C1.32 0 2.64 0 4 0 C4 2.31 4 4.62 4 7 C2.68 6.67 1.36 6.34 0 6 C0 4.02 0 2.04 0 0 Z " fill="#B8B7DE" transform="translate(61,168)"/>
<path d="M0 0 C4 6 4 6 4 9 C1.625 9.1875 1.625 9.1875 -1 9 C-1.66 8.01 -2.32 7.02 -3 6 C-1.68 6 -0.36 6 1 6 C0.67 4.02 0.34 2.04 0 0 Z " fill="#928ABB" transform="translate(48,151)"/>
<path d="M0 0 C0.66 0.33 1.32 0.66 2 1 C1.72510809 5.03174806 1.46508424 6.56894631 -1.5625 9.375 C-2.366875 9.91125 -3.17125 10.4475 -4 11 C-3.21681311 7.08406554 -1.60820142 3.63593365 0 0 Z " fill="#8C87C3" transform="translate(61,118)"/>
<path d="M0 0 C0.66 0 1.32 0 2 0 C2 0.99 2 1.98 2 3 C1.01 3.495 1.01 3.495 0 4 C-1.13102526 6.34038186 -1.13102526 6.34038186 -2.125 9.0625 C-2.47820313 9.98160156 -2.83140625 10.90070313 -3.1953125 11.84765625 C-3.46085937 12.55792969 -3.72640625 13.26820313 -4 14 C-4.66 13.67 -5.32 13.34 -6 13 C-5.1905146 11.01959844 -4.37732831 9.04070923 -3.5625 7.0625 C-3.11003906 5.96035156 -2.65757813 4.85820313 -2.19140625 3.72265625 C-1 1 -1 1 0 0 Z " fill="#9592BC" transform="translate(61,115)"/>
<path d="M0 0 C1.32 0 2.64 0 4 0 C3.67 2.31 3.34 4.62 3 7 C2.01 7 1.02 7 0 7 C0 4.69 0 2.38 0 0 Z " fill="#B3CCE0" transform="translate(126,168)"/>
<path d="M0 0 C1.65 0 3.3 0 5 0 C5 1.65 5 3.3 5 5 C3.35 4.67 1.7 4.34 0 4 C0 2.68 0 1.36 0 0 Z " fill="#B4CCE2" transform="translate(113,170)"/>
<path d="M0 0 C0.33 0 0.66 0 1 0 C1 2.31 1 4.62 1 7 C-0.65 6.67 -2.3 6.34 -4 6 C-3.67 4.68 -3.34 3.36 -3 2 C-2.01 2 -1.02 2 0 2 C0 1.34 0 0.68 0 0 Z " fill="#B8D3E6" transform="translate(124,168)"/>
<path d="M0 0 C0.33 0 0.66 0 1 0 C1 2.64 1 5.28 1 8 C-0.32 8 -1.64 8 -3 8 C-3 6.02 -3 4.04 -3 2 C-2.01 2.495 -2.01 2.495 -1 3 C-0.67 2.01 -0.34 1.02 0 0 Z " fill="#D4EDF3" transform="translate(154,149)"/>
<path d="M0 0 C0.66 0.33 1.32 0.66 2 1 C2 1.99 2 2.98 2 4 C1.34 4 0.68 4 0 4 C-0.33 4.99 -0.66 5.98 -1 7 C-2.32 7 -3.64 7 -5 7 C-5 6.01 -5 5.02 -5 4 C-4.360625 3.71125 -3.72125 3.4225 -3.0625 3.125 C-0.84793921 2.17176549 -0.84793921 2.17176549 0 0 Z " fill="#7CB0C1" transform="translate(157,140)"/>
<path d="M0 0 C1.2065625 0.0309375 1.2065625 0.0309375 2.4375 0.0625 C2.1075 2.0425 1.7775 4.0225 1.4375 6.0625 C0.7775 6.0625 0.1175 6.0625 -0.5625 6.0625 C-0.5625 4.7425 -0.5625 3.4225 -0.5625 2.0625 C-1.5525 1.7325 -2.5425 1.4025 -3.5625 1.0625 C-2.5625 0.0625 -2.5625 0.0625 0 0 Z " fill="#8E8EBC" transform="translate(70.5625,167.9375)"/>
<path d="M0 0 C2.31 0 4.62 0 7 0 C6.360625 0.226875 5.72125 0.45375 5.0625 0.6875 C2.72806339 1.85250896 2.72806339 1.85250896 2.25 4.625 C2.1675 5.40875 2.085 6.1925 2 7 C1.01 6.34 0.02 5.68 -1 5 C-0.67 3.35 -0.34 1.7 0 0 Z " fill="#9E96C4" transform="translate(48,147)"/>
<path d="M0 0 C2.86453858 3.41016497 4.34703566 6.90694544 6 11 C5.01 11 4.02 11 3 11 C0.84694043 7.14243493 -0.39253254 4.44870215 0 0 Z " fill="#92AEC1" transform="translate(129,124)"/>
<path d="M0 0 C-0.875 4.75 -0.875 4.75 -2 7 C-2.66 7 -3.32 7 -4 7 C-4 5.02 -4 3.04 -4 1 C-2 0 -2 0 0 0 Z " fill="#8E86BA" transform="translate(52,168)"/>
<path d="M0 0 C1.65 0 3.3 0 5 0 C5.33 0.66 5.66 1.32 6 2 C4.68 2 3.36 2 2 2 C2 2.66 2 3.32 2 4 C0.68 4 -0.64 4 -2 4 C-1.34 2.68 -0.68 1.36 0 0 Z " fill="#F7F2FB" transform="translate(39,153)"/>
<path d="M0 0 C0 0.99 0 1.98 0 3 C-3.29549466 4.72264494 -6.33118845 6.29445932 -10 7 C-3.24137931 0 -3.24137931 0 0 0 Z " fill="#96B1C0" transform="translate(150,69)"/>
<path d="M0 0 C1.32 0.33 2.64 0.66 4 1 C3.67 2.32 3.34 3.64 3 5 C2.01 4.67 1.02 4.34 0 4 C0 2.68 0 1.36 0 0 Z " fill="#C2DAEB" transform="translate(131,170)"/>
<path d="M0 0 C0.99 0 1.98 0 3 0 C3 2.31 3 4.62 3 7 C1.68 6.34 0.36 5.68 -1 5 C-1 4.34 -1 3.68 -1 3 C-0.01 2.67 0.98 2.34 2 2 C1.01 1.67 0.02 1.34 -1 1 C-0.67 0.67 -0.34 0.34 0 0 Z " fill="#908EB7" transform="translate(58,168)"/>
<path d="M0 0 C1.485 0.99 1.485 0.99 3 2 C2.67 3.65 2.34 5.3 2 7 C1.01 7.33 0.02 7.66 -1 8 C-1 7.34 -1 6.68 -1 6 C-0.34 6 0.32 6 1 6 C0.67 4.02 0.34 2.04 0 0 Z " fill="#DEF6F9" transform="translate(167,73)"/>
<path d="M0 0 C2.31 0 4.62 0 7 0 C6.01 0.495 6.01 0.495 5 1 C4.34786708 3.02463255 4.34786708 3.02463255 4 5 C2.68 3.35 1.36 1.7 0 0 Z " fill="#84B1BD" transform="translate(151,59)"/>
<path d="M0 0 C1.32 0.33 2.64 0.66 4 1 C4.33 2.32 4.66 3.64 5 5 C3.35 5 1.7 5 0 5 C0 3.35 0 1.7 0 0 Z " fill="#7AAEBD" transform="translate(152,50)"/>
</svg>
